<svg width="120" height="30" viewBox="0 0 120 30" fill="none" xmlns="http://www.w3.org/2000/svg">
<path d="M54.2582 4H50.5556V23.0824H54.2582V4Z" fill="#1E5AF6"/>
<path d="M21.7551 20.6296L21.6608 20.7614L21.6018 20.8385L21.5622 20.8891C21.405 21.0852 21.2309 21.2698 21.0424 21.4466C20.8394 21.6364 20.6194 21.817 20.3843 21.9922C19.4239 22.6736 18.0789 23.3551 16.1318 23.3551C12.1545 23.3551 9 20.2211 9 16.4037C9 12.5876 12.1545 9.45262 16.1318 9.45262C18.0789 9.45262 19.4239 10.1338 20.3843 10.8152C20.9324 11.2247 21.3981 11.6603 21.7551 12.1781L19.4239 14.4961C19.314 14.3631 19.1939 14.2353 19.0657 14.1129C18.9702 14.022 18.8702 13.9343 18.7665 13.8496L18.6641 13.7681L18.5949 13.7147L18.5459 13.6782C17.9689 13.2687 17.1468 12.8602 16.1318 12.8602C14.2117 12.8602 12.7026 14.3587 12.7026 16.4037C12.7026 18.4481 14.2117 19.9481 16.1318 19.9481C17.1468 19.9481 17.9689 19.5387 18.5459 19.1302C18.6528 19.0505 18.7565 18.9681 18.8564 18.8825C19.0651 18.7048 19.2568 18.5146 19.4239 18.3125L21.7551 20.6296Z" fill="#1E5AF6"/>
<path fill-rule="evenodd" clip-rule="evenodd" d="M30.1207 9.45262C34.0992 9.45262 37.2531 12.5876 37.2531 16.4037C37.2531 20.2211 34.0992 23.3551 30.1207 23.3551C26.1434 23.3551 22.9889 20.2211 22.9889 16.4037C22.9889 12.5876 26.1434 9.45262 30.1207 9.45262ZM33.5499 16.4037C33.5499 14.3596 32.0414 12.8602 30.1207 12.8602C28.2012 12.8602 26.6915 14.3596 26.6915 16.4037C26.6915 18.4481 28.2012 19.9481 30.1207 19.9481C32.0414 19.9481 33.5499 18.4481 33.5499 16.4037Z" fill="#1E5AF6"/>
<path fill-rule="evenodd" clip-rule="evenodd" d="M69.1918 21.8638C68.99 22.0028 68.7757 22.1358 68.5488 22.2648C67.562 22.8098 66.1353 23.3557 64.2705 23.3557C60.292 23.3557 57.1375 20.2207 57.1375 16.4037C57.1375 12.5873 60.292 9.4523 64.1329 9.4523C67.8361 9.4523 70.853 12.4508 70.853 16.1317C70.853 16.5336 70.8209 16.8372 70.792 17.0933V17.1008L70.7706 17.3031L70.7159 17.7672H60.9777C61.3894 18.9937 62.4868 20.0843 64.5439 20.0843C65.7243 20.0843 66.5746 19.757 67.205 19.3485C67.562 19.1302 67.8631 18.8844 68.1107 18.5852L70.0302 21.1742C69.7813 21.4225 69.5016 21.6502 69.1918 21.8638ZM67.0127 15.0408C66.6017 13.8143 65.5319 12.7238 63.9958 12.7238C62.4597 12.7238 61.3894 13.8143 60.9777 15.0408H67.0127Z" fill="#1E5AF6"/>
<path fill-rule="evenodd" clip-rule="evenodd" d="M81.0016 21.4475H81.1393V23.0824H84.8419V14.7684C84.8419 11.7965 82.51 9.452 79.0821 9.452C77.2978 9.452 75.954 10.106 74.9936 10.7612C74.4456 11.1422 73.9798 11.5788 73.5952 12.042L75.79 14.2235C76.0093 13.9505 76.2833 13.705 76.5857 13.4867C77.1067 13.0782 77.8471 12.7234 78.8075 12.7234C80.2059 12.7234 81.0016 13.5411 81.1393 14.4955L76.8867 15.2588C74.3909 15.6954 72.9095 17.3584 72.9095 19.539C72.9095 21.7198 74.5555 23.3554 77.0244 23.3554C78.3141 23.3554 79.3285 22.9197 79.9866 22.401C80.3712 22.129 80.7006 21.8017 81.0016 21.4475ZM78.1211 17.6304L81.1393 17.0855V17.3584C81.1393 19.1298 79.9048 20.3569 78.2588 20.3569C77.1614 20.3569 76.6133 19.8391 76.6133 18.9934C76.6133 18.3119 77.1614 17.8216 78.1211 17.6304Z" fill="#1E5AF6"/>
<path d="M88.4074 9.72496H92.11V11.6335H92.2477C92.3998 11.427 92.5588 11.235 92.7285 11.0532C92.895 10.8739 93.0716 10.705 93.2627 10.5426C93.9208 9.99761 94.9088 9.452 96.2249 9.452H96.4996V13.4046L96.1973 13.3502L96.0602 13.3321C95.8572 13.3046 95.597 13.269 95.2645 13.269C93.4827 13.269 92.11 14.632 92.11 16.8125V23.0824H88.4074V9.72496Z" fill="#1E5AF6"/>
<path d="M102.533 9.72496H98.8301V23.0824H102.533V15.9946C102.533 14.2225 103.768 12.9961 105.414 12.9961C106.95 12.9961 107.883 13.9505 107.883 15.5861V23.0824H111.585V15.0405C111.585 11.6335 109.391 9.452 106.648 9.452C105.881 9.452 105.225 9.6372 104.682 9.89923C104.293 10.0872 103.96 10.3149 103.685 10.5426C103.302 10.8702 102.972 11.224 102.671 11.6335H102.533V9.72496Z" fill="#1E5AF6"/>
<path d="M45.8175 16.3898L41.2917 19.929V12.8515L45.8175 16.3898Z" fill="#FEE643"/>
</svg>
